<svg xmlns="http://www.w3.org/2000/svg" version="1.1" xmlns:xlink="http://www.w3.org/1999/xlink" xmlns:svgjs="http://svgjs.dev/svgjs" width="2000" height="1500" viewBox="0 0 2000 1500"><rect width="2000" height="1500" fill="#ffffff"></rect><g transform="matrix(0.75,0,0,0.75,249.090909090909,278.98548387096776)"><svg viewBox="0 0 396 248" data-background-color="#c8c8c8" preserveAspectRatio="xMidYMid meet" height="1252" width="2000" xmlns="http://www.w3.org/2000/svg" xmlns:xlink="http://www.w3.org/1999/xlink"><g id="tight-bounds" transform="matrix(1,0,0,1,0.2400000000000091,0.4000000000000057)"><svg viewBox="0 0 395.52 247.2" height="247.2" width="395.52"><g><svg></svg></g><g><svg viewBox="0 0 395.52 247.2" height="247.2" width="395.52"><g transform="matrix(1,0,0,1,75.54432000000001,72.19860011988013)"><svg viewBox="0 0 244.43135999999996 102.80279976023974" height="102.80279976023974" width="244.43135999999996"><g><svg viewBox="0 0 244.43135999999996 102.80279976023974" height="102.80279976023974" width="244.43135999999996"><g><svg viewBox="0 0 244.43135999999996 102.80279976023974" height="102.80279976023974" width="244.43135999999996"><g><svg viewBox="0 0 244.43135999999996 102.80279976023974" height="102.80279976023974" width="244.43135999999996"><g id="textblocktransform"><svg viewBox="0 0 244.43135999999996 102.80279976023974" height="102.80279976023974" width="244.43135999999996" id="textblock"><g><svg viewBox="0 0 244.43135999999996 102.80279976023974" height="102.80279976023974" width="244.43135999999996"><g transform="matrix(1,0,0,1,0,0)"><svg width="244.43135999999996" viewBox="2.3 -32.75 100.09 42.1" height="102.80279976023974" data-palette-color="#000000"><path d="M20.05-6.15L20.05-6.15Q20.05-2.95 17.7-1.15 15.35 0.65 10.9 0.65L10.9 0.65Q7.1 0.65 4.7-0.53 2.3-1.7 2.3-3.1L2.3-3.1Q2.3-3.7 2.63-4.28 2.95-4.85 3.6-5.2L3.6-5.2Q4.95-4.25 6.75-3.45 8.55-2.65 10.85-2.65L10.85-2.65Q16.05-2.65 16.05-6.15L16.05-6.15Q16.05-7.6 15.18-8.53 14.3-9.45 12.6-9.85L12.6-9.85 8.45-10.95Q5.4-11.7 4-13.28 2.6-14.85 2.6-17.2L2.6-17.2Q2.6-19.85 4.75-21.8 6.9-23.75 11.3-23.75L11.3-23.75Q13.65-23.75 15.4-23.28 17.15-22.8 18.13-22.03 19.1-21.25 19.1-20.35L19.1-20.35Q19.1-19.7 18.78-19.2 18.45-18.7 17.9-18.45L17.9-18.45Q17.3-18.85 16.38-19.33 15.45-19.8 14.2-20.13 12.95-20.45 11.45-20.45L11.45-20.45Q9.25-20.45 7.9-19.6 6.55-18.75 6.55-17.2L6.55-17.2Q6.55-16.1 7.33-15.28 8.1-14.45 9.8-14.05L9.8-14.05 13.25-13.2Q16.65-12.4 18.35-10.68 20.05-8.95 20.05-6.15ZM46.15-14.65L46.15-9.95 42.15-9.95 42.15-14.55Q42.15-17.55 40.47-19 38.8-20.45 36.15-20.45L36.15-20.45Q34.2-20.45 32.52-19.7 30.85-18.95 29.7-17.9L29.7-17.9 28.95-21.15Q30.15-22 32.12-22.88 34.1-23.75 36.7-23.75L36.7-23.75Q40.85-23.75 43.5-21.5 46.15-19.25 46.15-14.65L46.15-14.65ZM26.2-1.55L26.2-13.2 30.2-13.2 30.2-0.1Q29.95 0 29.45 0.13 28.95 0.25 28.35 0.25L28.35 0.25Q27.3 0.25 26.75-0.18 26.2-0.6 26.2-1.55L26.2-1.55ZM42.15-1.55L42.15-13.15 46.15-13.1 46.15-0.1Q45.9 0 45.37 0.13 44.85 0.25 44.3 0.25L44.3 0.25Q43.2 0.25 42.67-0.18 42.15-0.6 42.15-1.55L42.15-1.55ZM30.2-30.95L30.2-11.25 26.2-11.25 26.2-32.4Q26.45-32.5 26.97-32.63 27.5-32.75 28.1-32.75L28.1-32.75Q29.15-32.75 29.67-32.33 30.2-31.9 30.2-30.95L30.2-30.95ZM75.09-11.55L75.09-11.55Q75.09-7.85 73.7-5.1 72.3-2.35 69.75-0.85 67.2 0.65 63.75 0.65L63.75 0.65Q60.3 0.65 57.72-0.85 55.15-2.35 53.75-5.1 52.35-7.85 52.35-11.55L52.35-11.55Q52.35-15.3 53.77-18.03 55.2-20.75 57.77-22.25 60.35-23.75 63.75-23.75L63.75-23.75Q67.15-23.75 69.7-22.25 72.25-20.75 73.67-18.03 75.09-15.3 75.09-11.55ZM63.75-20.45L63.75-20.45Q60.4-20.45 58.42-18.07 56.45-15.7 56.45-11.55L56.45-11.55Q56.45-7.35 58.37-5 60.3-2.65 63.75-2.65L63.75-2.65Q67.15-2.65 69.07-5.03 71-7.4 71-11.55L71-11.55Q71-15.7 69.07-18.07 67.15-20.45 63.75-20.45ZM91.14 0.65L91.14 0.65Q88.99 0.65 87.12 0.03 85.24-0.6 84.39-1.35L84.39-1.35 84.39-5.05Q85.39-4.1 86.92-3.38 88.44-2.65 90.59-2.65L90.59-2.65Q94.09-2.65 96.22-4.78 98.34-6.9 98.34-11.6L98.34-11.6Q98.34-14.9 97.27-16.82 96.19-18.75 94.42-19.6 92.64-20.45 90.59-20.45L90.59-20.45Q88.79-20.45 87.54-20 86.29-19.55 85.29-19L85.29-19 85.29-2.4 81.29-2.4 81.29-18.9Q81.29-19.9 81.64-20.5 81.99-21.1 83.09-21.75L83.09-21.75Q84.44-22.5 86.32-23.13 88.19-23.75 90.59-23.75L90.59-23.75Q93.89-23.75 96.57-22.48 99.24-21.2 100.82-18.53 102.39-15.85 102.39-11.6L102.39-11.6Q102.39-7.5 100.97-4.78 99.54-2.05 96.99-0.7 94.44 0.65 91.14 0.65ZM83.44 9.35L83.44 9.35Q82.39 9.35 81.84 8.9 81.29 8.45 81.29 7.5L81.29 7.5 81.29-3.85 85.29-3.75 85.29 9Q85.04 9.1 84.54 9.22 84.04 9.35 83.44 9.35Z" opacity="1" transform="matrix(1,0,0,1,0,0)" fill="#000000" class="wordmark-text-0" data-fill-palette-color="primary" id="text-0"></path></svg></g></svg></g></svg></g></svg></g></svg></g></svg></g></svg></g><g><path d="M245.816 0c68.262 0 123.6 55.338 123.6 123.6 0 68.262-55.338 123.6-123.6 123.6-45.029 0-84.434-24.079-106.042-60.064l5.447 0c21.084 33.311 58.256 55.429 100.595 55.429 65.702 0 118.965-53.262 118.964-118.965 0-65.702-53.262-118.965-118.964-118.965-42.339 0-79.512 22.117-100.595 55.429l-5.447 0c21.607-35.985 61.012-60.064 106.042-60.064z" fill="#000000" stroke="transparent" data-fill-palette-color="tertiary"></path></g></svg></g><defs></defs></svg><rect width="395.52" height="247.2" fill="none" stroke="none" visibility="hidden"></rect></g></svg></g></svg>